<svg version="1.1" id="Layer_1" xmlns="http://www.w3.org/2000/svg" xmlns:xlink="http://www.w3.org/1999/xlink" x="0px" y="0px"
	 width="100%" viewBox="0 0 496 496" enable-background="new 0 0 496 496" xml:space="preserve">
<path fill="#000000" opacity="1.000000" stroke="none" 
	d="
M274.320831,290.000061 
	C274.319122,298.330688 274.304047,306.161285 274.318298,313.991852 
	C274.341309,326.639526 278.798615,333.357758 290.574493,338.317566 
	C289.671448,339.746887 288.258636,339.357513 287.086761,339.360535 
	C276.757172,339.387115 266.421570,339.153076 256.100464,339.445496 
	C251.515213,339.575409 250.478989,337.790527 250.576309,333.600891 
	C250.816101,323.276764 250.497574,312.939819 250.729416,302.615326 
	C250.820938,298.539398 249.579056,296.976044 245.372681,297.092743 
	C236.549164,297.337616 227.707642,296.969147 218.886719,297.257233 
	C214.186615,297.410767 212.834244,295.522522 212.863037,291.092682 
	C213.004990,269.267883 212.886765,247.441528 212.980652,225.616226 
	C212.996948,221.825989 212.151886,218.491241 210.275146,215.182114 
	C192.692566,184.180237 175.255325,153.095901 157.659576,122.101509 
	C152.632797,113.246979 145.885269,106.029900 136.292206,101.325302 
	C170.368958,101.325302 204.445709,101.325302 238.575745,101.325302 
	C238.793457,102.796761 237.397903,102.952194 236.483093,103.526176 
	C227.405228,109.221855 225.245880,117.385109 230.627762,127.014717 
	C239.566071,143.007812 248.704803,158.888809 257.741058,174.827271 
	C262.340759,182.940399 266.758026,191.161499 271.546143,199.161179 
	C273.611237,202.611420 274.378265,206.066681 274.363373,210.028488 
	C274.263733,236.518692 274.316986,263.009460 274.320831,290.000061 
z"/>
<path fill="#000000" opacity="1.000000" stroke="none" 
	d="
M321.897156,128.897919 
	C314.781586,136.102463 309.356110,144.204178 303.470795,152.211578 
	C309.723694,127.917488 301.739868,111.054710 278.326630,101.339371 
	C307.102051,101.339371 335.877502,101.339371 364.652924,101.339371 
	C347.736115,106.247452 334.169128,116.237869 321.897156,128.897919 
z"/>
<path fill="#000000" opacity="1.000000" stroke="none" 
	d="
M239.532700,338.386292 
	C244.828781,345.998779 252.775894,347.334656 260.707642,348.679138 
	C263.738953,349.192963 266.784546,349.622681 269.880524,350.578003 
	C260.428802,353.864227 249.295364,352.485901 241.755493,360.326538 
	C234.331787,368.046387 234.808868,378.635040 232.930344,388.387909 
	C231.094223,385.749573 231.094223,385.749573 230.725830,382.419128 
	C228.362595,361.054443 222.057022,354.732635 200.693100,352.323212 
	C198.750992,352.104187 196.698349,352.275726 194.674484,350.221985 
	C197.726044,349.672607 200.354370,349.084473 203.014221,348.738983 
	C221.923538,346.283051 228.279160,339.876801 230.606247,320.664368 
	C230.918442,318.086884 231.201614,315.564392 232.701782,312.340332 
	C234.767044,321.598206 234.761322,330.459747 239.532700,338.386292 
z"/>
</svg>