<svg width="28" height="28" viewBox="0 0 28 28" fill="none" xmlns="http://www.w3.org/2000/svg">
<circle cx="13.6603" cy="13.6603" r="13.1603" stroke="#656565" stroke-dasharray="5 5"/>
<path d="M14 13C15.1046 13 16 12.1046 16 11C16 9.89543 15.1046 9 14 9C12.8954 9 12 9.89543 12 11C12 12.1046 12.8954 13 14 13Z" stroke="#656565" stroke-width="0.75"/>
<path d="M17.9987 17C18 16.9179 18 16.8345 18 16.75C18 15.5073 16.2092 14.5 14 14.5C11.7909 14.5 10 15.5073 10 16.75C10 17.9927 10 19 14 19C15.1155 19 15.9199 18.9217 16.5 18.7817" stroke="#656565" stroke-width="0.75" stroke-linecap="round"/>
</svg>
