<svg version="1.1" id="Layer_1" xmlns="http://www.w3.org/2000/svg" xmlns:xlink="http://www.w3.org/1999/xlink" x="0px" y="0px"
	 width="100%" viewBox="0 0 496 496" enable-background="new 0 0 496 496" xml:space="preserve">
<path fill="#000000" opacity="1.000000" stroke="none" 
	d="
M287.174896,361.380493 
	C234.865585,378.581970 176.525894,355.864502 149.957687,308.436310 
	C122.823975,259.998596 132.304962,197.995407 178.759155,159.692596 
	C217.920258,127.403145 281.547882,126.599503 321.251129,158.520462 
	C347.440765,179.576614 363.128510,206.481216 366.279205,240.136856 
	C369.420013,273.687256 359.310608,303.166260 337.146881,328.849060 
	C347.478851,336.816742 358.550354,340.459808 371.111389,339.798248 
	C370.904266,342.914703 368.914337,342.985809 367.214874,343.290619 
	C355.484192,345.394531 343.950195,345.003357 333.046234,339.724030 
	C329.470856,337.992950 327.001648,338.645874 324.075256,341.050110 
	C313.162994,350.015167 300.969727,356.769806 287.174896,361.380493 
M227.349197,201.500122 
	C227.349121,231.498795 227.340485,261.497467 227.354080,291.496155 
	C227.358292,300.790619 230.213821,304.428253 239.111740,306.649780 
	C240.137207,306.905823 241.594452,306.641663 241.482346,308.431396 
	C235.687637,310.269043 202.328903,309.681213 199.660995,307.609772 
	C201.011749,306.287720 202.837418,306.707703 204.368515,306.265137 
	C210.458618,304.504852 213.742447,300.691772 213.753845,294.348297 
	C213.817291,259.016296 213.816589,223.683990 213.730713,188.352051 
	C213.714127,181.526230 209.755142,177.406281 202.826141,176.303619 
	C201.582001,176.105637 200.020996,176.496490 199.705032,174.548294 
	C200.651840,172.648682 202.496613,172.999924 204.062958,173.023254 
	C221.383560,173.281052 238.714722,172.324677 256.027649,173.593445 
	C280.588959,175.393448 294.875641,195.088898 288.715881,219.109436 
	C284.755981,234.551315 275.558685,244.964111 259.123993,247.749420 
	C264.412231,256.976898 323.530182,319.101990 330.660858,323.059875 
	C366.074005,287.612976 371.101562,219.890488 329.302063,176.337082 
	C285.634979,130.837723 213.615982,131.706833 170.759003,178.159622 
	C129.352280,223.040466 134.655746,295.303406 181.752090,334.155182 
	C229.273956,373.357971 292.530945,360.650269 320.146515,332.850708 
	C313.864166,326.920746 306.850311,321.807678 301.097687,315.287079 
	C288.640259,301.166656 275.972870,287.231354 263.378448,273.231964 
	C256.468170,265.550842 249.449249,257.965424 242.646973,250.190155 
	C239.864853,247.010086 235.953476,245.121689 232.132126,241.255859 
	C238.783447,240.660355 244.170288,240.239090 249.543350,239.684494 
	C261.250946,238.476059 269.937317,231.772995 272.980835,221.617203 
	C275.880249,211.942337 274.888947,202.450073 270.928131,193.341492 
	C267.171143,184.701645 260.244324,180.417542 250.814987,180.318481 
	C244.649139,180.253693 238.472168,180.507751 232.319199,180.216782 
	C228.209778,180.022491 227.100082,181.700333 227.289948,185.503723 
	C227.538910,190.491135 227.350204,195.500381 227.349197,201.500122 
z"/>
</svg>