<svg width="19" height="19" viewBox="0 0 19 19" fill="none" xmlns="http://www.w3.org/2000/svg">
<path d="M11.9205 2.95833C11.7177 2.23914 11.0567 1.71204 10.2726 1.71204H7.98982C7.20572 1.71204 6.54474 2.23914 6.34187 2.95833M11.9205 2.95833C11.9623 3.10642 11.9846 3.26265 11.9846 3.4241V3.4241C11.9846 3.73928 11.7291 3.99479 11.4139 3.99479H6.84844C6.53326 3.99479 6.27776 3.73928 6.27776 3.4241V3.4241C6.27776 3.26265 6.3001 3.10642 6.34187 2.95833M11.9205 2.95833C12.4122 2.99546 12.9012 3.04233 13.3872 3.09874C14.2247 3.19593 14.8381 3.91794 14.8381 4.76102V14.8379C14.8381 15.7834 14.0716 16.5499 13.126 16.5499H5.13638C4.19083 16.5499 3.42432 15.7834 3.42432 14.8379V4.76102C3.42432 3.91794 4.03768 3.19593 4.87514 3.09874C5.36121 3.04233 5.85018 2.99546 6.34187 2.95833" stroke="#2B1887" stroke-width="1.14138" stroke-linecap="round" stroke-linejoin="round"/>
</svg>
