<svg width="52" height="52" viewBox="0 0 52 52" fill="none" xmlns="http://www.w3.org/2000/svg">
<rect width="52" height="52" rx="8" fill="#5E6FE1"/>
<path d="M20 21.2H16.4C15.08 21.2 14 20.12 14 18.8V16.4C14 15.08 15.08 14 16.4 14H20C21.32 14 22.4 15.08 22.4 16.4V18.8C22.4 20.12 21.32 21.2 20 21.2Z" stroke="white" stroke-width="1.8" stroke-linecap="round" stroke-linejoin="round"/>
<path d="M36.5598 20H32.2398C31.4478 20 30.7998 19.352 30.7998 18.56V16.64C30.7998 15.848 31.4478 15.2 32.2398 15.2H36.5598C37.3518 15.2 37.9998 15.848 37.9998 16.64V18.56C37.9998 19.352 37.3518 20 36.5598 20Z" stroke="white" stroke-width="1.8" stroke-linecap="round" stroke-linejoin="round"/>
<path d="M36.5598 29H32.2398C31.4478 29 30.7998 28.352 30.7998 27.56V25.64C30.7998 24.848 31.4478 24.2 32.2398 24.2H36.5598C37.3518 24.2 37.9998 24.848 37.9998 25.64V27.56C37.9998 28.352 37.3518 29 36.5598 29Z" stroke="white" stroke-width="1.8" stroke-linecap="round" stroke-linejoin="round"/>
<path d="M22.3999 17.6H30.7999" stroke="white" stroke-width="1.8" stroke-miterlimit="10" stroke-linecap="round" stroke-linejoin="round"/>
<path d="M26.6001 17.6V33.2C26.6001 34.52 27.6801 35.6 29.0001 35.6H30.8001" stroke="white" stroke-width="1.8" stroke-miterlimit="10" stroke-linecap="round" stroke-linejoin="round"/>
<path d="M26.6001 26.6H30.8001" stroke="white" stroke-width="1.8" stroke-miterlimit="10" stroke-linecap="round" stroke-linejoin="round"/>
<path d="M36.5598 38H32.2398C31.4478 38 30.7998 37.352 30.7998 36.56V34.64C30.7998 33.848 31.4478 33.2 32.2398 33.2H36.5598C37.3518 33.2 37.9998 33.848 37.9998 34.64V36.56C37.9998 37.352 37.3518 38 36.5598 38Z" stroke="white" stroke-width="1.8" stroke-linecap="round" stroke-linejoin="round"/>
</svg>
